<svg width="1060" height="556" viewBox="0 0 1060 556" fill="none" xmlns="http://www.w3.org/2000/svg">
<path d="M581.813 413.046C570.363 396.955 552.996 375.329 539.411 370.816C531.912 365.432 520.326 360.532 507.915 355.391L501.59 352.746C501.758 348.622 500.216 345.466 496.795 343.129C475.869 328.876 454.644 308.804 434.253 286.587C434.8 285.458 435.117 284.206 435.117 282.823C435.116 277.628 430.888 272.984 425.688 272.448C424.186 272.293 422.814 272.258 421.332 272.122C415.384 265.262 409.567 258.329 403.885 251.329C404.859 249.955 405.565 248.357 405.565 246.463C405.563 241.259 401.336 236.616 396.145 236.081C395.658 236.031 393.957 235.863 391.362 235.678C384.732 227.204 378.209 218.679 371.796 210.105C372.203 209.101 372.472 208.017 372.471 206.84C372.47 201.636 368.253 196.986 363.062 196.45C362.555 196.398 362.097 196.384 361.61 196.334C355.567 188.075 349.576 179.795 343.635 171.492C343.933 170.593 344.221 169.667 344.221 168.647C344.22 163.451 339.982 158.807 334.801 158.273L334.145 158.221C309.913 124.403 305.507 119.222 298.794 118.53C294.359 118.073 290.243 117.895 286.235 117.819C284.723 115.416 283.181 113.075 281.679 110.639C276.993 103.059 266.988 93.5383 246.015 91.3751C214.243 88.098 170.653 103.139 145.069 113.55C120.813 102.527 100.188 95.9866 83.949 94.3116C67.3719 92.6018 59.6563 96.2766 56.4251 98.6521C56.2263 98.7715 55.9876 98.8292 55.7987 98.9744C37.923 113.301 26.425 142.347 19.0438 171.53C7.27745 201.331 6.00086 226.451 6.19267 238.112C5.46349 238.743 4.83627 239.452 4.32372 240.225C-2.54483 251.331 -1.1314 297.328 8.53684 308.279C33.3341 336.467 58.7059 355.698 85.5696 376.064C115.954 399.097 147.363 422.912 184.285 463.399C216.094 498.296 282.308 523.247 365.968 531.876C477.423 543.372 596.756 522.92 596.744 474.17C596.731 420.504 589.738 414.119 581.813 413.046ZM570.866 420.2C549.324 445.65 449.279 450.249 361.193 441.163C331.788 438.13 305.833 433.774 288.082 428.88C263.499 422.104 240.337 412.701 218.616 401.782C239.007 381.788 275.919 382.162 313.528 386.041C328.136 387.548 343.211 389.646 359.192 391.887C375.51 394.163 392.386 396.513 409.072 398.234C449.347 402.388 500.051 404.308 537.982 382.953C544.775 387.045 558.273 402.377 570.866 420.2ZM452.571 332.524C458.33 338.091 463.761 343.369 468.426 348.057C474.801 354.478 488.406 360.121 502.786 366.092C510.225 369.181 517.714 372.333 523.631 375.355C490.184 391.731 447.255 390.176 409.069 386.238C393.487 384.631 377.616 382.434 362.162 380.272C362.129 367.153 359.819 353.577 355.909 345.006C378.45 336.364 410.855 329.143 452.571 332.524ZM409.185 290.011C416.772 297.649 424.441 305.233 432.191 312.762C394.563 312.396 365.061 319.883 344.022 328.458C336.646 319.089 329.212 309.749 321.72 300.437C341.636 293.369 370.125 287.884 409.185 290.011ZM390.356 270.648C354.389 270.635 327.691 276.822 308.59 284.329C302.582 276.974 296.684 269.845 290.935 262.97C319.989 254.416 353.331 253.343 374.561 253.787C379.932 259.635 385.174 265.206 390.356 270.648ZM277.337 246.912C270.151 238.507 262.873 230.151 255.504 221.846C276.445 216.514 304.665 212.369 339.717 213.704C345.567 220.787 351.539 227.807 357.632 234.759C334.293 235.143 304.064 237.805 277.337 246.912ZM359.317 214.984C363.704 220.871 368.23 226.854 372.905 232.918C367.634 226.938 362.451 220.909 357.358 214.832C358.015 214.883 358.651 214.915 359.317 214.984ZM331.485 176.826C335.623 182.596 339.98 188.644 344.595 195.007C343.382 194.931 342.229 194.927 341.025 194.869C336.188 188.769 331.436 182.628 326.771 176.447C328.362 176.578 329.884 176.677 331.485 176.826ZM240.753 205.587C233.87 198.101 226.864 190.69 219.736 183.355C241.214 177.872 271.064 173.64 309.797 175.322C314.631 181.863 319.475 188.25 324.31 194.446C289.058 194.432 261.157 199.631 240.753 205.587ZM296.779 130.359C300.3 133.719 308.268 144.503 317.19 156.868C315.52 156.761 313.839 156.646 312.198 156.559C306.003 147.856 299.994 139.075 294.173 130.222C295.058 130.289 295.864 130.281 296.779 130.359ZM246.018 103.379C257.255 104.539 264.744 108.365 268.902 115.076C277.445 128.885 286.438 142.533 295.87 156.003C255.537 155.473 225.13 161.179 203.762 167.604C182.835 147.538 165.151 133.356 150.86 125.361C174.822 115.483 217.11 100.398 246.018 103.379ZM67.3458 107.691C68.877 106.943 73.6 105.24 83.942 106.307C91.957 107.133 104.785 109.897 123.591 117.288C98.3534 117.039 84.3958 132 73.1422 144.375C65.905 152.306 59.1052 159.797 52.7409 159.42C48.8418 154.901 55.7965 130.45 67.3458 107.691ZM37.9739 158.679C38.4916 161.038 39.3672 163.137 40.6603 164.868C43.3262 168.395 47.4634 170.592 52.3162 171.092C66.7751 172.584 75.6924 162.784 85.1367 152.396C96.43 140.009 108.091 127.199 129.69 129.427C141.762 130.672 162.648 145.637 190.309 172.062C183.399 174.659 178.079 177.132 174.062 179.179C172.949 178.755 171.785 178.468 170.611 178.329C163.024 177.547 156.88 183.055 156.882 190.63C156.884 198.204 163.031 204.98 170.618 205.763C177.261 206.448 182.799 202.302 184.07 196.159C190.971 192.729 198.244 189.78 205.825 187.338C213.127 194.781 220.287 202.316 227.3 209.938C220.922 212.217 214.748 214.81 208.806 217.705C207.628 217.233 206.388 216.919 205.136 216.775C197.559 215.993 191.415 221.493 191.417 229.076C191.419 236.659 197.566 243.427 205.143 244.208C211.677 244.882 217.115 240.865 218.506 234.892C225.891 231.351 233.64 228.293 241.693 225.74C249.083 233.987 256.742 242.689 264.63 251.884C256.501 255.489 249.021 259.925 242.339 265.104C241.971 265.033 241.623 264.923 241.245 264.884C233.638 264.1 227.504 269.609 227.505 277.184C227.507 284.75 233.644 291.533 241.252 292.318C248.68 293.084 254.715 287.762 254.912 280.389C261.695 275.151 269.426 270.805 277.889 267.47C283.907 274.628 290.064 282.023 296.361 289.67C289.092 293.254 282.362 297.48 276.267 302.286C275.959 302.238 275.66 302.133 275.352 302.101C267.784 301.32 261.631 306.836 261.632 314.411C261.634 321.977 267.791 328.762 275.359 329.543C282.857 330.316 288.901 324.929 289.049 317.494C295.151 312.838 301.921 308.808 309.242 305.473C316.875 314.918 324.438 324.398 331.931 333.913C325.12 337.239 318.655 340.988 312.583 345.131C311.946 344.975 311.32 344.812 310.674 344.745C303.076 343.961 296.942 349.479 296.944 357.045C296.946 364.62 303.083 371.395 310.68 372.179C317.781 372.911 323.577 368.067 324.251 361.187C330.319 357.115 336.796 353.46 343.629 350.252C346.525 357.335 347.76 368.067 347.703 378.286C336.324 376.677 324.936 375.258 313.545 374.03C270.824 369.624 228.791 369.545 205.389 394.894C143.171 360.92 94.355 315.056 62.3769 281.821C63.0863 255.186 55.107 237.674 47.1178 220.886C40.4519 206.844 34.164 193.549 33.4833 174.921C34.8243 169.453 36.3047 163.99 37.9739 158.679ZM33.6445 224.066C39.7433 236.888 45.494 249.37 47.3576 265.922C44.7218 263.073 42.255 260.39 39.9872 257.916C29.9311 246.983 24.6196 241.297 20.7408 238.361C20.7862 226.499 22.1078 214.796 24.6899 203.391C27.297 210.732 30.5006 217.459 33.6445 224.066ZM365.965 519.871C286.64 511.689 224.515 488.733 195.48 456.897C157.594 415.339 124.136 389.979 94.6165 367.594C68.4192 347.742 43.6839 328.98 19.9012 301.975C15.0472 296.156 13.0602 263.15 15.921 250.7C19.3624 254.192 24.1468 259.386 28.8217 264.479C67.5639 306.644 158.297 405.367 285.121 440.324C303.807 445.47 330.836 450.028 361.196 453.16C429.334 460.188 544.983 462.524 579.709 431.642C580.954 438.588 582.18 450.94 582.185 472.652C582.194 509.044 479.131 531.544 365.965 519.871Z" fill="black"/>
<path d="M634.405 223.351C644.608 212.907 659.533 199.215 668.751 198.091C674.413 195.235 682.483 193.465 691.106 191.651L695.506 190.708C696.22 187.491 697.79 185.32 700.349 184.109C715.995 176.735 732.976 164.916 749.871 151.293C749.759 150.325 749.812 149.302 750.086 148.233C751.116 144.218 754.626 141.364 757.919 141.855C758.87 141.997 759.718 142.209 760.653 142.362C765.656 138.094 770.593 133.749 775.461 129.327C775.136 128.096 775.02 126.737 775.396 125.273C776.427 121.251 779.937 118.398 783.224 118.888C783.532 118.934 784.607 119.101 786.235 119.41C791.975 114.014 797.66 108.56 803.289 103.049C803.238 102.202 803.288 101.318 803.521 100.408C804.552 96.3857 808.058 93.5254 811.345 94.0152C811.666 94.0631 811.949 94.1317 812.257 94.1777C817.595 88.8463 822.907 83.4889 828.191 78.1058C828.187 77.3585 828.193 76.5931 828.396 75.804C829.425 71.7884 832.941 68.9363 836.222 69.4253L836.634 69.4999C858.18 47.5781 861.906 44.3411 866.157 44.9745C868.965 45.3931 871.523 45.9725 873.994 46.6116C875.396 45.017 876.805 43.476 878.208 41.855C882.58 36.8114 890.597 31.1944 903.877 33.1736C923.996 36.1721 947.73 55.3876 961.346 67.8889C978.392 63.5913 992.327 62.1267 1002.61 63.6592C1013.11 65.2237 1017.11 69.4074 1018.62 71.8061C1018.72 71.9331 1018.85 72.0193 1018.94 72.1644C1027.05 86.3502 1028.35 110.804 1027.09 134.646C1028.4 159.73 1024.21 179.369 1021.78 188.349C1022.11 188.964 1022.35 189.621 1022.51 190.308C1024.52 200.088 1014.55 235.396 1006.45 242.178C985.677 259.648 966.321 270.097 945.827 281.161C922.646 293.676 898.683 306.615 868.04 331.482C841.638 352.918 796.122 360.676 743.145 352.781C672.569 342.263 603.492 305.678 613.152 267.998C623.787 226.519 629.336 222.801 634.405 223.351ZM639.697 230.786C647.859 254.209 708.256 275.182 764.034 283.495C782.654 286.27 799.422 287.421 811.269 286.729C827.675 285.772 843.731 282.535 859.203 277.877C850.667 258.872 827.973 252.735 804.158 249.186C794.908 247.807 785.254 246.804 775.017 245.754C764.567 244.673 753.76 243.551 743.194 241.976C717.691 238.175 686.239 230.832 667.224 207.721C662.251 209.702 650.943 219.202 639.697 230.786ZM729.549 183.612C724.918 186.912 720.545 190.046 716.758 192.858C711.579 196.711 702.125 198.704 692.13 200.816C686.96 201.908 681.747 203.041 677.522 204.347C694.776 222.828 721.391 229.1 745.571 232.704C755.438 234.175 765.599 235.24 775.497 236.259C778.115 226.124 782.219 216.033 786.312 210.089C774.21 199.484 755.782 188.261 729.549 183.612ZM764.554 158.304C758.392 162.887 752.191 167.414 745.951 171.884C769.082 178.153 785.678 189.076 796.873 199.367C803.249 193.41 809.654 187.484 816.088 181.591C805.283 172.66 788.911 163.461 764.554 158.304ZM779.927 146.615C801.97 152.867 817.105 162.298 827.324 171.425C832.462 166.787 837.488 162.303 842.373 157.99C826.262 146.319 806.042 139.685 792.944 136.332C788.495 139.918 784.18 143.311 779.927 146.615ZM853.885 147.945C859.953 142.699 866.067 137.507 872.227 132.371C860.451 124.604 843.978 116.486 822.234 111.416C817.247 115.872 812.197 120.259 807.086 124.572C821.312 128.932 839.309 136.252 853.885 147.945ZM809.969 108.993C806.115 112.779 802.157 116.616 798.091 120.49C802.506 116.785 806.876 113.027 811.2 109.216C810.788 109.141 810.391 109.056 809.969 108.993ZM834.581 84.3436C830.902 88.0833 827.035 91.9997 822.947 96.1143C823.705 96.267 824.413 96.465 825.161 96.6294C829.334 92.7569 833.462 88.8372 837.544 84.8712C836.543 84.6956 835.591 84.5075 834.581 84.3436ZM884.486 122.372C890.186 117.784 895.947 113.275 901.768 108.846C889.692 100.869 872.237 92.4004 848.169 86.9568C843.911 91.1718 839.678 95.2648 835.489 99.2125C857.094 105.339 873.162 114.216 884.486 122.372ZM865.05 54.4689C862.227 56.4531 855.209 63.4016 847.292 71.4055C848.337 71.6141 849.39 71.8172 850.413 72.0357C855.932 66.3873 861.353 60.6465 866.673 54.8166C866.118 54.714 865.626 54.568 865.05 54.4689ZM901.498 42.4521C894.382 41.3916 889.036 43.0459 885.159 47.5092C877.189 56.6956 868.976 65.6791 860.529 74.4485C885.349 81.0614 902.853 90.7659 914.675 99.452C931.473 87.5852 945.118 79.7018 955.459 76.0102C942.73 64.2028 919.803 45.1802 901.498 42.4521ZM1010.13 76.8913C1009.34 76.0468 1006.79 73.9082 1000.24 72.9322C995.163 72.1758 986.755 72.0789 973.767 74.517C989.282 78.7189 994.873 92.7132 999.319 104.238C1002.18 111.628 1004.87 118.602 1008.84 119.419C1012.13 116.605 1012.71 96.4941 1010.13 76.8913ZM1018.04 121.417C1017.25 123.15 1016.3 124.621 1015.17 125.733C1012.83 127.995 1009.86 128.973 1006.79 128.515C997.635 127.151 994.111 118.023 990.38 108.35C985.913 96.8087 981.303 84.8767 967.626 82.8384C959.982 81.6991 944.22 89.6303 922.037 105.24C925.757 108.451 928.527 111.288 930.583 113.57C931.35 113.436 932.12 113.417 932.866 113.514C937.671 114.23 940.345 119.557 938.844 125.412C937.343 131.267 932.235 135.434 927.43 134.718C923.224 134.091 920.651 129.922 921.088 124.953C917.539 121.1 913.666 117.554 909.504 114.346C903.555 118.829 897.676 123.406 891.869 128.077C895.326 130.949 898.596 134.028 901.664 137.3C902.479 137.141 903.301 137.113 904.097 137.22C908.895 137.935 911.571 143.256 910.068 149.117C908.566 154.978 903.459 159.139 898.661 158.424C894.523 157.807 891.986 153.756 892.317 148.896C888.492 144.874 884.349 141.161 879.92 137.786C873.758 142.873 867.342 148.266 860.687 154C864.955 158.202 868.66 162.933 871.729 168.1C871.969 168.109 872.204 168.085 872.443 168.12C877.26 168.838 879.929 174.165 878.427 180.02C876.928 185.868 871.824 190.043 867.007 189.325C862.303 188.624 859.659 183.459 860.998 177.726C857.878 172.496 854.002 167.79 849.476 163.739C844.371 168.225 839.133 172.868 833.76 177.683C837.505 181.719 840.793 186.158 843.576 190.933C843.774 190.95 843.978 190.92 844.173 190.95C848.965 191.664 851.644 196.998 850.143 202.853C848.644 208.701 843.527 212.874 838.735 212.16C833.987 211.452 831.35 206.236 832.732 200.463C829.914 195.802 826.563 191.508 822.738 187.656C816.19 193.628 809.678 199.639 803.202 205.688C806.717 209.445 809.937 213.468 812.838 217.729C813.259 217.719 813.675 217.701 814.084 217.762C818.895 218.479 821.561 223.812 820.062 229.66C818.561 235.515 813.459 239.684 808.648 238.967C804.152 238.296 801.559 233.543 802.508 228.108C799.596 223.903 796.351 219.951 792.798 216.281C789.622 221.252 786.739 229.332 784.751 237.242C792.043 237.979 799.302 238.865 806.526 239.899C833.578 243.931 859.351 251.188 868.672 274.856C913.527 259.427 952.523 232.475 978.7 212.353C983.539 191.642 991.897 179.495 1000.12 167.909C1006.98 158.216 1013.47 149.034 1017.57 134.754C1017.83 130.293 1018.01 125.813 1018.04 121.417ZM1007.74 172.712C1001.47 181.562 995.472 190.209 991.052 202.678C993.232 200.935 995.275 199.291 997.154 197.774C1005.48 191.073 1009.86 187.603 1012.82 186.009C1015.14 176.832 1016.65 167.556 1017.32 158.29C1014.27 163.511 1010.98 168.153 1007.74 172.712ZM745.524 343.503C795.755 350.989 838.371 344.06 862.467 324.507C893.913 298.98 919.438 285.203 941.96 273.04C961.944 262.256 980.817 252.06 1000.74 235.327C1004.87 231.674 1012.62 206.507 1013.33 196.385C1010.53 198.485 1006.57 201.668 1002.7 204.79C970.606 230.638 895.457 291.15 810.817 296.09C798.347 296.815 780.881 295.632 761.657 292.767C718.51 286.337 647.178 268.008 632.012 238.091C629.874 243.243 626.677 252.578 622.374 269.36C615.163 297.488 673.865 332.823 745.524 343.503Z" fill="black"/>
</svg>
