<svg width="390" height="385" viewBox="0 0 390 385" fill="none" xmlns="http://www.w3.org/2000/svg">
<path d="M198.15 182.524C193.51 173.368 186.565 161.151 181.544 159.046C178.677 156.146 174.359 153.719 169.738 151.185L167.382 149.878C167.306 147.393 166.648 145.566 165.344 144.314C157.367 136.685 149.09 125.574 141.041 113.136C141.2 112.434 141.272 111.667 141.226 110.836C141.054 107.715 139.384 105.114 137.501 105.024C136.957 104.998 136.464 105.039 135.928 105.023C133.568 101.167 131.252 97.2615 128.982 93.3091C129.286 92.4406 129.486 91.4486 129.423 90.3109C129.25 87.1846 127.58 84.5837 125.701 84.4939C125.525 84.4854 124.909 84.4609 123.972 84.4655C121.314 79.6705 118.692 74.8398 116.108 69.9745C116.221 69.3534 116.281 68.6902 116.242 67.9828C116.069 64.8566 114.403 62.2509 112.523 62.161C112.34 62.1523 112.175 62.1641 111.999 62.1557C109.558 57.4639 107.135 52.7565 104.729 48.0336C104.807 47.4798 104.879 46.911 104.845 46.2976C104.673 43.1763 102.999 40.5752 101.123 40.4855L100.886 40.4841C91.0756 21.2477 89.3237 18.3321 86.8936 18.2159C85.288 18.1391 83.8057 18.2163 82.366 18.3497C81.7441 16.9731 81.1136 15.6356 80.4942 14.2394C78.5627 9.89427 74.6588 4.62112 67.0661 4.25812C55.5636 3.7082 40.4297 14.6921 31.6002 22.0896C22.5362 16.5501 14.9229 13.5417 9.04381 13.2606C3.04234 12.9737 0.397189 15.5262 -0.682845 17.0977C-0.750198 17.1783 -0.833863 17.2237 -0.896794 17.3193C-6.83251 26.7251 -9.99321 44.6901 -11.673 62.5532C-14.9049 80.9834 -14.5302 96.1326 -14.0749 103.13C-14.3155 103.542 -14.5169 103.996 -14.6751 104.483C-16.7702 111.463 -14.7389 139.035 -10.9087 145.183C-1.08179 161.011 8.65435 171.432 18.9631 182.468C30.6229 194.95 42.6759 207.855 57.2586 230.531C69.8226 250.077 94.3946 262.111 124.683 263.559C165.033 265.488 207.15 247.871 205.53 218.581C203.747 186.339 201.028 182.815 198.15 182.524ZM194.461 187.311C187.579 203.564 151.854 210.796 119.964 209.271C109.318 208.762 99.8658 207.304 93.3377 205.156C84.2972 202.183 75.6794 197.568 67.5282 191.978C74.1778 179.054 87.4275 177.63 101.043 178.281C106.332 178.534 111.808 179.122 117.613 179.754C123.541 180.393 129.67 181.051 135.711 181.34C150.292 182.037 168.539 180.926 181.434 166.401C184.006 168.557 189.354 177.165 194.461 187.311ZM149.133 139.918C151.383 143.005 153.505 145.934 155.333 148.542C157.833 152.115 162.898 154.898 168.253 157.843C171.023 159.367 173.813 160.926 176.036 162.478C164.584 173.81 149.137 174.794 135.313 174.133C129.671 173.863 123.907 173.252 118.293 172.643C117.847 164.763 116.568 156.709 114.882 151.734C122.679 145.536 134.061 139.75 149.133 139.918ZM132.165 116.314C135.139 120.564 138.14 124.778 141.169 128.955C127.663 130.416 117.331 136.232 110.07 142.323C107.115 137.024 104.139 131.744 101.144 126.484C108.052 121.348 118.087 116.78 132.165 116.314ZM124.771 105.521C111.872 107.119 102.503 112.029 95.9016 117.392C93.5033 113.242 91.1517 109.222 88.8621 105.348C98.9979 98.9109 110.919 96.7773 118.548 96.096C120.668 99.3697 122.732 102.483 124.771 105.521ZM83.4536 96.3078C80.5981 91.5784 77.7111 86.8832 74.7931 82.2228C82.1261 78.0839 92.1088 74.333 104.724 73.5695C107.056 77.5641 109.43 81.5148 111.846 85.4201C103.489 86.693 92.7366 89.6423 83.4536 96.3078ZM111.795 73.4636C113.563 76.8043 115.385 80.1968 117.262 83.6316C115.174 80.2741 113.115 76.8831 111.087 73.4593C111.324 73.4608 111.554 73.452 111.795 73.4636ZM100.549 51.7806C102.224 55.0626 103.987 58.5017 105.853 62.1184C105.416 62.1271 105.002 62.1764 104.568 62.1951C102.631 58.7465 100.724 55.2689 98.8461 51.7633C99.421 51.7711 99.9699 51.7628 100.549 51.7806ZM68.9643 73.1131C66.248 68.9229 63.4897 64.7829 60.6904 60.6944C68.2109 56.441 78.7757 52.5651 92.7214 51.8455C94.6719 55.56 96.6208 59.1807 98.5598 62.6874C85.9176 64.2538 76.084 68.6235 68.9643 73.1131ZM86.5628 25.413C87.9368 27.2745 91.1516 33.3978 94.7613 40.428C94.1587 40.4387 93.5522 40.4442 92.9609 40.4653C90.4508 35.5132 88.0047 30.5062 85.6239 25.447C85.9435 25.4475 86.2321 25.407 86.5628 25.413ZM67.465 11.4703C71.5332 11.6648 74.3456 13.6297 76.0592 17.4759C79.5805 25.3908 83.2579 33.1889 87.0869 40.8604C72.6053 42.3437 61.8899 47.1301 54.4399 51.9443C46.2701 40.8232 39.4583 33.0922 34.0682 28.9272C42.3341 21.922 56.9993 10.97 67.465 11.4703ZM3.53306 22.0404C4.05739 21.5228 5.69469 20.2887 9.43885 20.4677C12.3406 20.6064 17.0327 21.6941 24.0217 25.2943C14.9627 26.2722 10.4531 35.8843 6.82758 43.8218C4.49504 48.9102 2.30478 53.7144 0.00997826 53.7725C-1.53809 51.2317 0.145606 36.2302 3.53306 22.0404ZM-5.31026 53.9868C-5.04645 55.3808 -4.66287 56.6029 -4.14177 57.585C-3.06885 59.585 -1.51236 60.7202 0.244514 60.8041C5.47914 61.0544 8.35225 54.7683 11.3948 48.1054C15.0342 40.1587 18.7915 31.9414 26.6111 32.3152C30.9817 32.5242 38.9678 40.5826 49.7631 55.2236C47.371 57.0925 45.5453 58.8158 44.1727 60.2254C43.7595 60.0199 43.3326 59.8997 42.907 59.8688C40.1601 59.7375 38.1393 63.3214 38.391 67.8723C38.6427 72.4232 41.0717 76.2198 43.8187 76.3511C46.2236 76.4661 48.0721 73.7275 48.3244 69.9802C50.6855 67.6112 53.1959 65.5146 55.8338 63.7085C58.6992 67.8545 61.5164 72.0617 64.284 76.328C62.0723 77.9819 59.9441 79.8155 57.9092 81.8202C57.4711 81.5895 57.016 81.456 56.5624 81.4252C53.8191 81.2941 51.798 84.873 52.05 89.4289C52.302 93.9847 54.7308 97.7764 57.4741 97.9075C59.8394 98.0206 61.6565 95.3644 61.9573 91.7131C64.4884 89.2562 67.166 87.0726 69.9693 85.1793C72.8929 89.8037 75.9279 94.69 79.0614 99.8621C76.2657 102.391 73.7302 105.391 71.5056 108.801C71.3713 108.775 71.2428 108.724 71.106 108.717C68.3519 108.586 66.3347 112.17 66.5864 116.721C66.8379 121.267 69.2636 125.068 72.0177 125.2C74.707 125.328 76.6947 121.861 76.5211 117.423C78.7801 113.973 81.4083 111.016 84.3329 108.634C86.7283 112.666 89.1814 116.834 91.6929 121.148C89.2052 123.626 86.9314 126.465 84.9051 129.625C84.7929 129.609 84.6824 129.56 84.5708 129.554C81.8311 129.423 79.807 133.012 80.0587 137.563C80.3102 142.109 82.743 145.911 85.4828 146.042C88.1973 146.171 90.1865 142.665 89.9928 138.191C92.0271 135.121 94.3213 132.397 96.8361 130.067C99.8864 135.401 102.913 140.759 105.915 146.14C103.583 148.443 101.389 150.984 99.3486 153.745C99.1152 153.679 98.8851 153.609 98.6511 153.598C95.9006 153.466 93.8836 157.055 94.1351 161.601C94.3868 166.152 96.8122 169.949 99.5627 170.08C102.133 170.203 104.051 167.034 104.065 162.87C106.106 160.152 108.308 157.667 110.652 155.435C111.925 159.561 112.724 165.953 113.042 172.096C108.908 171.637 104.777 171.293 100.651 171.065C85.185 170.325 70.1086 172.155 62.5564 188.43C39.1181 170.797 20.0917 145.422 7.52234 126.882C6.89397 110.848 3.45205 100.683 0.0305926 90.9529C-2.8253 82.8141 -5.52086 75.1072 -6.38239 63.9458C-6.08269 60.6003 -5.73287 57.2524 -5.31026 53.9868ZM-4.69577 93.4651C-2.08366 100.897 0.392319 108.139 1.60921 118C0.569525 116.406 -0.404028 114.904 -1.29929 113.52C-5.26792 107.4 -7.36114 104.221 -8.84947 102.63C-9.22631 95.5016 -9.14024 88.4112 -8.59229 81.4431C-7.41402 85.7374 -6.04218 89.6364 -4.69577 93.4651ZM124.284 256.346C95.5654 254.973 72.5252 243.955 61.0579 226.125C46.0937 202.848 33.2547 189.106 21.9268 176.976C11.874 166.218 2.38169 156.05 -7.04218 140.888C-8.97581 137.608 -10.7823 117.867 -10.169 110.259C-8.81909 112.203 -6.93119 115.11 -5.08589 117.961C10.2052 141.564 46.0155 196.826 92.6553 212.164C99.527 214.421 109.371 215.953 120.362 216.478C145.031 217.658 186.582 213.896 198.012 193.791C198.688 197.908 199.537 205.275 200.259 218.32C201.468 240.184 165.254 258.305 124.284 256.346Z" fill="black"/>
<path d="M191.239 288.491C195.621 277.882 202.311 263.662 207.727 260.882C210.675 257.401 215.279 254.324 220.213 251.099L222.727 249.439C222.598 246.662 223.173 244.568 224.519 243.06C232.755 233.866 241.025 220.764 248.926 206.203C248.688 205.433 248.541 204.585 248.521 203.654C248.444 200.159 250.082 197.115 252.173 196.853C252.777 196.777 253.331 196.779 253.927 196.716C256.226 192.212 258.471 187.659 260.661 183.056C260.247 182.114 259.938 181.025 259.91 179.751C259.833 176.251 261.471 173.207 263.558 172.945C263.754 172.92 264.438 172.84 265.483 172.764C268.034 167.189 270.54 161.577 273.002 155.929C272.822 155.247 272.698 154.512 272.68 153.72C272.603 150.22 274.237 147.171 276.324 146.909C276.528 146.883 276.713 146.882 276.909 146.857C279.225 141.416 281.521 135.958 283.795 130.485C283.662 129.874 283.532 129.247 283.517 128.56C283.44 125.065 285.081 122.02 287.165 121.759L287.429 121.737C296.708 99.443 298.41 96.0412 301.109 95.7021C302.893 95.478 304.552 95.4361 306.169 95.4608C306.743 93.8723 307.331 92.3266 307.901 90.7165C309.68 85.7054 313.578 79.4895 322.012 78.4299C334.789 76.8246 352.609 87.7655 363.092 95.2517C372.72 88.2937 380.949 84.2828 387.479 83.4624C394.146 82.6248 397.315 85.2425 398.655 86.9014C398.737 86.9856 398.834 87.0289 398.912 87.1301C406.342 97.1049 411.415 116.862 414.829 136.633C420.022 156.903 420.911 173.826 421.007 181.667C421.31 182.105 421.574 182.594 421.793 183.124C424.731 190.724 424.844 221.641 421.104 228.826C411.513 247.32 401.556 259.779 391.015 272.973C379.092 287.895 366.766 303.323 352.464 329.863C340.142 352.739 313.783 368.275 280.139 372.502C235.317 378.133 186.84 362.124 186.12 329.329C185.327 293.227 188.055 289.063 191.239 288.491ZM195.764 293.51C204.839 311.037 245.294 316.019 280.718 311.568C292.543 310.082 302.956 307.641 310.049 304.684C319.872 300.589 329.082 294.7 337.688 287.765C329.16 273.929 314.264 273.485 299.14 275.385C293.265 276.123 287.211 277.25 280.793 278.456C274.239 279.68 267.462 280.942 260.751 281.785C244.555 283.82 224.115 284.155 208.485 269.074C205.804 271.699 200.583 281.758 195.764 293.51ZM242.214 236.76C239.972 240.396 237.858 243.844 236.045 246.91C233.567 251.11 228.159 254.649 222.442 258.395C219.485 260.332 216.509 262.311 214.165 264.233C227.911 275.88 245.217 275.644 260.574 273.715C266.84 272.928 273.215 271.749 279.421 270.586C279.239 261.762 279.97 252.672 281.421 246.98C272.193 240.742 259.004 235.273 242.214 236.76ZM259.096 208.979C256.147 213.974 253.164 218.931 250.147 223.85C265.332 224.314 277.353 229.907 285.974 236.072C288.812 229.909 291.674 223.766 294.56 217.643C286.415 212.512 274.833 208.285 259.096 208.979ZM266.409 196.308C280.929 196.978 291.798 201.644 299.62 207.054C301.936 202.22 304.212 197.535 306.43 193.018C294.574 186.716 281.099 185.365 272.535 185.263C270.454 189.096 268.42 192.745 266.409 196.308ZM311.68 182.473C314.456 176.953 317.27 171.469 320.121 166.022C311.589 162.04 300.135 158.719 286.005 158.956C283.749 163.61 281.442 168.22 279.086 172.782C288.513 173.481 300.756 175.842 311.68 182.473ZM278.111 159.447C276.428 163.325 274.69 167.264 272.893 171.256C274.932 167.332 276.935 163.374 278.9 159.382C278.636 159.404 278.379 159.414 278.111 159.447ZM288.78 134.302C287.195 138.106 285.526 142.092 283.757 146.286C284.246 146.258 284.712 146.277 285.197 146.261C287.059 142.248 288.886 138.207 290.677 134.136C290.036 134.194 289.424 134.233 288.78 134.302ZM325.834 155.362C328.502 150.456 331.22 145.602 333.988 140.803C325.236 136.709 313.123 133.299 297.512 133.699C295.658 138.009 293.798 142.214 291.938 146.291C306.168 146.947 317.509 150.971 325.834 155.362ZM302.099 103.698C300.728 105.892 297.671 112.996 294.253 121.146C294.926 121.106 295.603 121.06 296.264 121.032C298.635 115.294 300.931 109.501 303.149 103.655C302.792 103.683 302.467 103.663 302.099 103.698ZM322.189 86.5054C317.67 87.0732 314.704 89.5064 313.125 93.9425C309.882 103.071 306.454 112.082 302.847 120.966C319.121 121.371 331.481 125.783 340.202 130.508C348.352 117.404 355.28 108.197 360.93 103.088C351.11 95.9906 333.814 85.0449 322.189 86.5054ZM394.381 92.7759C393.751 92.244 391.819 91.0093 387.66 91.5319C384.437 91.9368 379.3 93.5542 371.818 98.171C382.002 98.4799 387.859 108.808 392.586 117.345C395.626 122.817 398.482 127.984 401.046 127.851C402.553 124.885 399.381 108.304 394.381 92.7759ZM406.996 127.631C406.822 129.208 406.5 130.604 406.003 131.744C404.98 134.066 403.342 135.466 401.391 135.711C395.576 136.442 391.831 129.681 387.864 122.515C383.12 113.969 378.222 105.131 369.536 106.222C364.682 106.832 356.473 116.506 345.699 133.76C348.528 135.638 350.712 137.402 352.364 138.855C352.807 138.59 353.272 138.419 353.744 138.348C356.796 137.965 359.358 141.786 359.47 146.882C359.581 151.978 357.201 156.42 354.149 156.803C351.478 157.139 349.181 154.245 348.576 150.089C345.74 147.651 342.76 145.53 339.663 143.744C336.826 148.614 334.048 153.548 331.33 158.543C333.938 160.196 336.47 162.057 338.911 164.117C339.38 163.822 339.876 163.633 340.379 163.56C343.426 163.177 345.988 166.993 346.1 172.094C346.212 177.196 343.831 181.632 340.784 182.015C338.157 182.345 335.901 179.541 335.251 175.496C332.217 172.975 329.044 170.771 325.755 168.902C322.894 174.31 319.932 180.02 316.884 186.057C320.219 188.635 323.305 191.761 326.079 195.371C326.227 195.33 326.366 195.263 326.518 195.243C329.577 194.859 332.135 198.681 332.247 203.777C332.359 208.867 329.982 213.314 326.923 213.699C323.936 214.074 321.42 210.38 321.231 205.416C318.415 201.764 315.229 198.695 311.763 196.292C309.44 200.994 307.065 205.852 304.637 210.878C307.624 213.426 310.404 216.396 312.936 219.744C313.06 219.717 313.179 219.652 313.303 219.637C316.346 219.254 318.912 223.081 319.024 228.176C319.136 233.267 316.751 237.715 313.708 238.097C310.693 238.476 308.172 234.738 308.002 229.733C305.469 226.486 302.677 223.647 299.672 221.266C296.731 227.476 293.819 233.711 290.935 239.97C293.734 242.336 296.4 244.98 298.913 247.882C299.167 247.789 299.418 247.691 299.678 247.658C302.733 247.274 305.291 251.102 305.403 256.192C305.515 261.287 303.138 265.729 300.083 266.113C297.228 266.472 294.816 263.104 294.441 258.463C291.931 255.609 289.262 253.028 286.456 250.741C285.393 255.451 285.053 262.647 285.228 269.524C289.798 268.656 294.374 267.916 298.954 267.305C316.134 265.146 333.101 265.886 342.925 283.38C367.537 261.699 386.561 231.766 398.976 210.011C398.293 192.08 401.254 180.45 404.23 169.307C406.712 159.986 409.052 151.161 409.05 138.642C408.428 134.938 407.749 131.236 406.996 127.631ZM409.716 171.7C407.445 180.211 405.309 188.499 404.803 199.599C405.824 197.732 406.78 195.973 407.659 194.352C411.556 187.187 413.615 183.462 415.138 181.56C414.943 173.58 414.235 165.682 413.023 157.96C412.08 162.85 410.887 167.315 409.716 171.7ZM279.962 364.427C311.862 360.419 336.6 346.147 347.848 325.278C362.524 298.035 375.653 281.607 387.237 267.105C397.517 254.244 407.223 242.089 416.422 224.371C418.295 220.547 418.607 198.381 417.267 189.952C415.929 192.236 414.075 195.64 412.264 198.978C397.251 226.613 362.092 291.314 311.414 312.438C303.948 315.548 293.104 318.104 280.895 319.638C253.493 323.081 206.842 322.471 192.364 301.041C191.965 305.69 191.654 313.977 191.974 328.582C192.512 353.064 234.452 370.144 279.962 364.427Z" fill="black"/>
</svg>
